# xmcd
#
# Track frame offsets: 
#        183
#        21645
#        47818
#        73695
#        96383
#        112185
#        131558
#
# Disc length: 2071 seconds
#
# Revision: 2
# Processed by: cddbd v1.4PL0 Copyright (c) Steve Scherf et al.
# Submitted via: ExactAudioCopy v0.90b4
#
DISCID=6b081507
DTITLE=Johnny Guitar Watson - Ain't That A Bitch
DYEAR=1976
DGENRE=
TTITLE0=I Need It
TTITLE1=I Want To Ta-Ta You Baby
TTITLE2=Superman Lover
TTITLE3=Ain't That A Bitch
TTITLE4=Since I Met You Baby
TTITLE5=We're No Exception
TTITLE6=Won't You Forgive Me Baby
EXTD=
EXTT0=
EXTT1=
EXTT2=
EXTT3=
EXTT4=
EXTT5=
EXTT6=
PLAYORDER=
